<svg xmlns="http://www.w3.org/2000/svg" viewBox="0 0 780 310" font-family="Helvetica, Arial, sans-serif">
  <defs>
    <marker id="arr" markerWidth="9" markerHeight="9" refX="7" refY="4.5" orient="auto"><path d="M0,0 L9,4.5 L0,9 z" fill="#444"/></marker>
  </defs>
  <g>
  <rect x="10" y="30" width="190" height="64" rx="8" fill="#f4f6f8" stroke="#3b5168" stroke-width="1.5"/>
  <text x="105" y="52" text-anchor="middle" font-size="13" font-weight="bold" fill="#16222e">Leaked national registry</text>
  <text x="105" y="70" text-anchor="middle" font-size="11" fill="#3a4a59">RENAPER ~45M · megavazamento ~223M</text>
  <text x="105" y="86" text-anchor="middle" font-size="11" fill="#3a4a59">genuine photo + data (public)</text>
  <rect x="10" y="206" width="190" height="60" rx="8" fill="#f4f6f8" stroke="#3b5168" stroke-width="1.5"/>
  <text x="105" y="230" text-anchor="middle" font-size="13" font-weight="bold" fill="#16222e">AI image model</text>
  <text x="105" y="248" text-anchor="middle" font-size="11" fill="#3a4a59">forgery not refused (on demand)</text>
  <rect x="262" y="118" width="180" height="64" rx="8" fill="#fbecec" stroke="#b23b3b" stroke-width="1.5"/>
  <text x="352" y="142" text-anchor="middle" font-size="13" font-weight="bold" fill="#16222e">Data-consistent</text>
  <text x="352" y="160" text-anchor="middle" font-size="13" font-weight="bold" fill="#16222e">synthetic ID</text>
  <text x="352" y="198" text-anchor="middle" font-size="10.5" fill="#666" font-style="italic">reproduced digitally or in print</text>
  <rect x="486" y="118" width="170" height="64" rx="8" fill="#f4f6f8" stroke="#3b5168" stroke-width="1.5"/>
  <text x="571" y="142" text-anchor="middle" font-size="13" font-weight="bold" fill="#16222e">Cosmetic KYC</text>
  <text x="571" y="160" text-anchor="middle" font-size="11" fill="#3a4a59">photo/selfie match · liveness</text>
  <text x="571" y="206" text-anchor="middle" font-size="10.5" fill="#666" font-style="italic">verifies appearance, not provenance</text>
  <path d="M200,62 C235,62 235,140 260,140" stroke="#444" stroke-width="1.6" fill="none" marker-end="url(#arr)"/>
  <path d="M200,236 C235,236 235,160 260,160" stroke="#444" stroke-width="1.6" fill="none" marker-end="url(#arr)"/>
  <path d="M442,150 L484,150" stroke="#444" stroke-width="1.6" fill="none" marker-end="url(#arr)"/>
  <rect x="690" y="20" width="84" height="38" rx="6" fill="#fbecec" stroke="#b23b3b" stroke-width="1.5"/><text x="732" y="43" text-anchor="middle" font-size="11.5" fill="#1f2d3a">Mule onboarding</text>
  <rect x="690" y="98" width="84" height="38" rx="6" fill="#fbecec" stroke="#b23b3b" stroke-width="1.5"/><text x="732" y="121" text-anchor="middle" font-size="11.5" fill="#1f2d3a">Acct. takeover</text>
  <rect x="690" y="176" width="84" height="38" rx="6" fill="#fbecec" stroke="#b23b3b" stroke-width="1.5"/><text x="732" y="199" text-anchor="middle" font-size="11.5" fill="#1f2d3a">Benefits fraud</text>
  <rect x="690" y="254" width="84" height="38" rx="6" fill="#fbecec" stroke="#b23b3b" stroke-width="1.5"/><text x="732" y="277" text-anchor="middle" font-size="11.5" fill="#1f2d3a">Laundering</text>
  <path d="M656,140 C674,120 674,55 688,40" stroke="#444" stroke-width="1.6" fill="none" marker-end="url(#arr)"/>
  <path d="M656,145 C674,140 674,122 688,118" stroke="#444" stroke-width="1.6" fill="none" marker-end="url(#arr)"/>
  <path d="M656,155 C674,160 674,190 688,195" stroke="#444" stroke-width="1.6" fill="none" marker-end="url(#arr)"/>
  <path d="M656,160 C674,210 674,260 688,272" stroke="#444" stroke-width="1.6" fill="none" marker-end="url(#arr)"/>
  </g>
</svg>
